# AST/ASF file generated using VICON BodyLanguage
# -----------------------------------------------
:version 1.10
:name VICON
:units
  mass 1.0
  length 0.45
  angle deg
:documentation
   .ast/.asf automatically generated from VICON data using
   VICON BodyBuilder and BodyLanguage model FoxedUp or BRILLIANT.MOD
:root
   order TX TY TZ RX RY RZ
   axis XYZ
   position 0 0 0  
   orientation 0 0 0 
:bonedata
  begin
     id 1 
     name lhipjoint
     direction 0.61886 -0.69539 0.365302 
     length 2.20474 
     axis 0 0 0  XYZ
  end
  begin
     id 2 
     name lfemur
     direction 0.34202 -0.939693 0  
     length 6.65149  
     axis 0 0 20  XYZ
    dof rx ry rz
    limits (-160.0 20.0)
           (-70.0 70.0)
           (-60.0 70.0)
  end
  begin
     id 3 
     name ltibia
     direction 0.34202 -0.939693 0   
     length 6.35814   
     axis 0 0 20   XYZ
    dof rx
    limits (-10.0 170.0)
  end
  begin
     id 4 
     name lfoot
     direction 0.101224 -0.278109 0.955201   
     length 2.18766   
     axis -90 7.62852e-016 20   XYZ
    dof rx rz
    limits (-45.0 90.0)
           (-70.0 20.0)
  end
  begin
     id 5 
     name ltoes
     direction 1.53524e-011 -4.21877e-011 1   
     length 1.09206   
     axis -90 7.62852e-016 20   XYZ
    dof rx
    limits (-90.0 20.0)
  end
  begin
     id 6 
     name rhipjoint
     direction -0.600207 -0.708087 0.371972   
     length 2.1652  
     axis 0 0 0  XYZ 
  end
  begin
     id 7 
     name rfemur
     direction -0.34202 -0.939693 0   
     length 6.54691   
     axis 0 0 -20   XYZ
    dof rx ry rz
    limits (-160.0 20.0)
           (-70.0 70.0)
           (-70.0 60.0)
  end
  begin
     id 8 
     name rtibia
     direction -0.34202 -0.939693 0   
     length 6.37474   
     axis 0 0 -20   XYZ
    dof rx
    limits (-10.0 170.0)
 end
 begin
     id 9 
     name rfoot
     direction -0.111266 -0.3057 0.945604   
     length 2.00903  
     axis -90 -7.62852e-016 -20   XYZ
    dof rx rz
    limits (-45.0 90.0)
           (-20.0 70.0)
  end
  begin
     id 10 
     name rtoes
     direction -1.5362e-011 -4.21913e-011 1   
     length 1.00221   
     axis -90 -7.62852e-016 -20   XYZ
    dof rx
    limits (-90.0 20.0)
  end
  begin
     id 11 
     name lowerback
     direction -0.0224561 0.999731 -0.00577314   
     length 2.10409   
     axis 0 0 0   XYZ
    dof rx ry rz
    limits (-20.0 45.0)
           (-30.0 30.0)
           (-30.0 30.0)
  end
  begin
     id 12 
     name upperback
     direction 0.0213126 0.999185 -0.0342817   
     length 2.09783   
     axis 0 0 0   XYZ
    dof rx ry rz
    limits (-20.0 45.0)
           (-30.0 30.0)
           (-30.0 30.0)
  end
  begin
     id 13 
     name thorax
     direction 0.0312356 0.999036 -0.0308451   
     length 2.09788   
     axis 0 0 0   XYZ
    dof rx ry rz
    limits (-20.0 45.0)
           (-30.0 30.0)
           (-30.0 30.0)
  end
  begin
     id 14 
     name lowerneck
     direction -0.0114419 0.996481 0.0830329   
     length 1.38575   
     axis 0 0 0   XYZ
    dof rx ry rz
    limits (-20.0 45.0)
           (-30.0 30.0)
           (-30.0 30.0)
  end
  begin
     id 15 
     name upperneck
     direction -0.0075675 0.996187 -0.0869092   
     length 1.39401   
     axis 0 0 0   XYZ
    dof rx ry rz
    limits (-20.0 45.0)
           (-30.0 30.0)
           (-30.0 30.0)
  end
  begin
     id 16
     name head
     direction -0.00222073 0.999264 -0.0382974  
     length 1.3964  
     axis 0 0 0   XYZ
    dof rx ry rz
    limits (-20.0 45.0)
           (-30.0 30.0)
           (-30.0 30.0)
  end
  begin
     id 17 
     name lclavicle
     direction 0.965962 0.222138 0.132556  
     length 2.81514  
     axis 0 0 0   XYZ
    dof ry rz
    limits (-20.0 10.0)
           (0.0 20.0)
  end
  begin
     id 18 
     name lhumerus
     direction 1 -4.48972e-011 7.03471e-018   
     length 4.47366   
     axis 180 -30 -90   XYZ
    dof rx ry rz
    limits (-60.0 90.0)
           (-90.0 90.0)
           (-90.0 90.0)
  end
  begin
     id 19
     name lradius
     direction 1 -4.48951e-011 -6.22192e-028   
     length 3.19948   
     axis 180 -30 -90   XYZ
    dof rx
    limits (-10.0 170.0)
  end
  begin
     id 20
     name lwrist
     direction 1 -4.48967e-011 -1.24264e-027   
     length 1.59974   
     axis 1.40095e-015 90 90   XYZ
    dof ry
    limits (-180.0 0.0)
 end
  begin
     id 21 
     name lhand
     direction 1 -4.4897e-011 -2.48528e-027   
     length 0.492667   
     axis 1.58582e-015 90 90   XYZ
    dof rx rz
    limits (-90.0 90.0)
           (-45.0 45.0)
  end
  begin
     id 22 
     name lfingers
     direction 1 -4.48996e-011 -4.97056e-027   
     length 0.397201   
     axis 3.17164e-015 90 90   XYZ
    dof rx
    limits (0.0 90.0)
  end
  begin
     id 23
     name lthumb
     direction 0.707107 -6.34981e-011 0.707107   
     length 0.570303   
     axis -90 45 2.85299e-015   XYZ
    dof rx rz
    limits (-45.0 45.0)
           (-45.0 45.0)
  end
  begin
     id 24 
     name rclavicle
     direction -0.961164 0.229034 0.153972   
     length 3.09348  
     axis 0 0 0   XYZ 
    dof ry rz
    limits (-10.0 20.0)
           (-20.0 0.0)
  end
  begin
     id 25 
     name rhumerus
     direction -1 -4.48971e-011 -9.06263e-028  
     length 4.3269   
     axis 180 30 90   XYZ
    dof rx ry rz
    limits (-90.0 60.0)
           (-90.0 90.0)
           (-90.0 90.0)
  end
  begin
     id 26 
     name rradius
     direction -1 -4.48953e-011 1.44659e-027   
     length 3.1896   
     axis 180 30 90   XYZ
    dof rx
    limits (-10.0 170.0)
  end
  begin
     id 27 
     name rwrist
     direction -1 -4.48988e-011 -1.24264e-027   
     length 1.5948   
     axis 1.40095e-015 -90 -90   XYZ
    dof ry
    limits (-180.0 0.0)
  end
  begin
     id 28
     name rhand
     direction -1 -4.49033e-011 -2.48528e-027   
     length 0.464496   
     axis 1.58582e-015 -90 -90   XYZ
    dof rx rz
    limits (-90.0 90.0)
           (-45.0 45.0)
  end
  begin
     id 29
     name rfingers
     direction -1 -4.48905e-011 -4.97056e-027   
     length 0.374489   
     axis 3.17164e-015 -90 -90   XYZ
    dof rx
    limits (0.0 90.0)
  end
  begin
     id 30
     name rthumb
     direction -0.707107 -6.34909e-011 0.707107   
     length 0.537693   
     axis -90 -45 -2.85299e-015   XYZ
    dof rx rz
    limits (-45.0 45.0)
           (-45.0 45.0)
  end
:hierarchy
  begin
    root lhipjoint rhipjoint lowerback
    lhipjoint lfemur
    lfemur ltibia
    ltibia lfoot
    lfoot ltoes
    rhipjoint rfemur
    rfemur rtibia
    rtibia rfoot
    rfoot rtoes
    lowerback upperback
    upperback thorax
    thorax lowerneck lclavicle rclavicle
    lowerneck upperneck
    upperneck head
    lclavicle lhumerus
    lhumerus lradius
    lradius lwrist
    lwrist lhand lthumb
    lhand lfingers
    rclavicle rhumerus
    rhumerus rradius
    rradius rwrist
    rwrist rhand rthumb
    rhand rfingers
  end

#!OML:ASF G:\acrobat\cartwheel_test 2\Patient 1\Session 2\acrobat4.ASF
:FULLY-SPECIFIED
:DEGREES
173
root 8.46016 14.661 1.95979 -4.62975 -4.65788 1.80328
lowerback 2.62071 -0.47034 -3.26567
upperback 3.63564 -0.696402 1.98056
thorax 2.33808 -0.461029 3.8788
lowerneck -14.9889 -0.625219 -0.685726
upperneck 11.0889 -0.467533 -1.60922
head 5.8044 -0.384243 -0.442347
rclavicle 1.49089e-014 -5.56597e-015
rhumerus 48.9533 -6.50398 -72.9453
rradius 15.8955
rwrist 28.5882
rhand -21.4972 -26.3714
rfingers 7.12502
rthumb 4.89428 -56.2949
lclavicle 1.49089e-014 -5.56597e-015
lhumerus 40.8996 -8.13598 43.4904
lradius 28.7331
lwrist 9.29668
lhand -29.3522 1.63741
lfingers 7.12502
lthumb -2.69183 31.6002
rfemur -18.4072 1.27734 17.6591
rtibia 51.3398
rfoot -18.8643 -17.9851
rtoes -16.1728
lfemur -18.0702 5.27211 -19.3951
ltibia 52.3424
lfoot -25.6949 11.9946
ltoes -11.4776
174
root 8.46049 14.6644 1.95357 -4.68705 -4.70339 1.77074
lowerback 2.70948 -0.458746 -3.25539
upperback 3.66436 -0.682856 1.96
thorax 2.31623 -0.453767 3.85233
lowerneck -14.9292 -0.627407 -0.656063
upperneck 11.0533 -0.481983 -1.58176
head 5.78307 -0.387326 -0.439372
rclavicle 3.67752e-015 -2.38542e-015
rhumerus 48.8703 -6.34599 -72.7482
rradius 15.9487
rwrist 28.4151
rhand -21.726 -26.8949
rfingers 7.12502
rthumb 4.67335 -56.8234
lclavicle 3.67752e-015 -2.38542e-015
lhumerus 40.8881 -8.16617 43.4798
lradius 28.8053
lwrist 9.25299
lhand -29.3109 1.67012
lfingers 7.12502
lthumb -2.652 31.6334
rfemur -18.3545 1.27326 17.6976
rtibia 51.2847
rfoot -18.8315 -17.9046
rtoes -15.7143
lfemur -18.0134 5.32309 -19.3422
ltibia 52.3225
lfoot -25.7024 11.9442
ltoes -11.3778
175
root 8.46264 14.6683 1.94917 -4.72913 -4.75867 1.83817
lowerback 2.71406 -0.433386 -3.32283
upperback 3.70728 -0.648845 1.90365
thorax 2.35525 -0.439146 3.83171
lowerneck -14.779 -0.653704 -0.6084
upperneck 10.8951 -0.535317 -1.55536
head 5.70762 -0.407487 -0.442307
rclavicle 2.10712e-014 -8.74653e-015
rhumerus 48.7696 -6.25149 -72.5804
rradius 16.0383
rwrist 28.2399
rhand -23.6567 -26.9579
rfingers 7.12502
rthumb 2.80895 -56.9191
lclavicle 2.10712e-014 -8.74653e-015
lhumerus 40.9156 -8.23261 43.4472
lradius 28.8548
lwrist 9.26346
lhand -29.2905 1.49648
lfingers 7.12502
lthumb -2.63231 31.46
rfemur -18.307 1.23891 17.6039
rtibia 51.2396
rfoot -18.8146 -17.8203
rtoes -15.511
lfemur -17.9566 5.34548 -19.4275
ltibia 52.2967
lfoot -25.701 12.0083
ltoes -11.5401
176
root 8.46463 14.667 1.94401 -4.70575 -4.80648 1.84191
lowerback 2.68289 -0.423332 -3.35227
upperback 3.72683 -0.6346 1.8894
thorax 2.39198 -0.433657 3.83319
lowerneck -14.662 -0.671992 -0.537228
upperneck 10.7474 -0.566654 -1.63827
head 5.64095 -0.424703 -0.481729
rclavicle -1.81391e-014 -1.35174e-014
rhumerus 48.7172 -6.28223 -72.6396
rradius 16.0859
rwrist 28.3952
rhand -29.2305 -27.1931
rfingers 7.12502
rthumb -2.57434 -57.1573
lclavicle -1.81391e-014 -1.35174e-014
lhumerus 40.9329 -8.30253 43.4141
lradius 28.8999
lwrist 9.38969
lhand -29.4312 1.43077
lfingers 7.12502
lthumb -2.76813 31.3926
rfemur -18.3563 1.21354 17.5859
rtibia 51.2081
rfoot -18.6955 -17.7328
rtoes -15.4963
lfemur -17.9931 5.37972 -19.4385
ltibia 52.2884
lfoot -25.6921 12.0077
ltoes -11.6855
177
root 8.46542 14.6668 1.93627 -4.63571 -4.8726 1.70877
lowerback 2.61651 -0.414879 -3.265
upperback 3.75593 -0.621264 1.92082
thorax 2.45721 -0.42706 3.8158
lowerneck -14.5744 -0.688294 -0.485333
upperneck 10.6679 -0.58729 -1.74098
head 5.6008 -0.439573 -0.523654
rclavicle -6.90777e-015 1.51076e-014
rhumerus 48.7324 -6.34593 -72.7462
rradius 16.1271
rwrist 28.5718
rhand -21.4739 -24.5085
rfingers 7.12502
rthumb 4.9168 -54.4315
lclavicle -6.90777e-015 1.51076e-014
lhumerus 40.9919 -8.32957 43.3684
lradius 28.9357
lwrist 9.54906
lhand -29.6254 1.38874
lfingers 7.12502
lthumb -2.95571 31.348
rfemur -18.4671 1.23228 17.7445
rtibia 51.1745
rfoot -18.6804 -17.6885
rtoes -15.3875
lfemur -18.1056 5.52003 -19.2743
ltibia 52.3125
lfoot -25.6779 11.8456
ltoes -11.6103
178
root 8.46549 14.67 1.92673 -4.59467 -4.94417 1.55398
lowerback 2.59389 -0.41187 -3.15018
upperback 3.77827 -0.616219 1.9477
thorax 2.49112 -0.423023 3.77854
lowerneck -14.4396 -0.700011 -0.464034
upperneck 10.5991 -0.604345 -1.78236
head 5.55645 -0.449117 -0.540688
rclavicle 1.70955e-014 1.11319e-014
rhumerus 48.698 -6.23365 -72.6428
rradius 16.2117
rwrist 28.3851
rhand -21.3356 -24.8664
rfingers 7.12502
rthumb 5.05032 -54.7862
lclavicle 1.70955e-014 1.11319e-014
lhumerus 41.0171 -8.32689 43.3225
lradius 28.9687
lwrist 9.59327
lhand -29.5818 1.34353
lfingers 7.12502
lthumb -2.91363 31.3034
rfemur -18.5366 1.26543 17.9332
rtibia 51.1309
rfoot -18.8597 -17.6458
rtoes -15.1346
lfemur -18.1952 5.64749 -19.0873
ltibia 52.3519
lfoot -25.6539 11.7304
ltoes -11.513
179
root 8.46631 14.671 1.91639 -4.58331 -4.9892 1.40906
lowerback 2.66139 -0.402734 -3.03015
upperback 3.78404 -0.604797 1.95518
thorax 2.45634 -0.413691 3.71893
lowerneck -14.3229 -0.713404 -0.370598
upperneck 10.4185 -0.639495 -1.82528
head 5.47949 -0.463912 -0.571001
rclavicle -3.52843e-015 2.46493e-014
rhumerus 48.6004 -6.07243 -72.3954
rradius 16.3057
rwrist 28.0685
rhand -21.4313 -25.0732
rfingers 7.12502
rthumb 4.95788 -54.9951
lclavicle -3.52843e-015 2.46493e-014
lhumerus 41.0549 -8.37276 43.2462
lradius 29.0238
lwrist 9.56612
lhand -29.3721 1.36393
lfingers 7.12502
lthumb -2.71106 31.3264
rfemur -18.5771 1.28593 18.0959
rtibia 51.0774
rfoot -18.8075 -17.5846
rtoes -15.1621
lfemur -18.2699 5.6569 -18.9242
ltibia 52.3987
lfoot -25.654 11.7048
ltoes -11.3251
180
root 8.46961 14.6711 1.90761 -4.53109 -5.01072 1.33769
lowerback 2.62262 -0.383369 -2.97236
upperback 3.83 -0.577398 1.94578
thorax 2.5223 -0.400304 3.67606
lowerneck -14.2548 -0.730302 -0.240204
upperneck 10.238 -0.679786 -1.91541
head 5.41032 -0.483515 -0.622759
rclavicle -2.08724e-015 -1.74931e-014
rhumerus 48.5895 -6.03518 -72.1869
rradius 16.3768
rwrist 27.8619
rhand -20.7914 -23.8794
rfingers 7.12502
rthumb 5.57577 -53.786
lclavicle -2.08724e-015 -1.74931e-014
lhumerus 41.1758 -8.42446 43.1416
lradius 29.1122
lwrist 9.61602
lhand -29.2026 1.40518
lfingers 7.12502
lthumb -2.54735 31.3697
rfemur -18.6684 1.25361 18.1497
rtibia 51.0294
rfoot -18.5875 -17.5069
rtoes -15.4359
lfemur -18.3931 5.60845 -18.8741
ltibia 52.4385
lfoot -25.6473 11.7618
ltoes -11.2499
181
root 8.47332 14.672 1.90019 -4.44584 -5.01399 1.34226
lowerback 2.5336 -0.37722 -2.98445
upperback 3.84627 -0.566868 1.92896
thorax 2.5882 -0.396579 3.66475
lowerneck -14.0838 -0.741717 -0.182449
upperneck 10.1447 -0.699576 -1.99149
head 5.35211 -0.495102 -0.656307
rclavicle 1.12313e-014 1.27222e-014
rhumerus 48.5728 -6.0366 -72.0744
rradius 16.4255
rwrist 27.7914
rhand -22.0411 -25.4092
rfingers 7.12502
rthumb 4.36911 -55.3442
lclavicle 1.12313e-014 1.27222e-014
lhumerus 41.2561 -8.47342 43.0983
lradius 29.1742
lwrist 9.63208
lhand -29.2081 1.5017
lfingers 7.12502
lthumb -2.55268 31.4662
rfemur -18.7799 1.16348 18.1145
rtibia 51.0048
rfoot -18.5385 -17.4211
rtoes -15.5025
lfemur -18.5452 5.58478 -18.9198
ltibia 52.4735
lfoot -25.588 11.8626
ltoes -11.5176
182
root 8.47559 14.671 1.89279 -4.40478 -5.01752 1.36068
lowerback 2.54824 -0.379441 -3.02616
upperback 3.80536 -0.570288 1.92155
thorax 2.5384 -0.397659 3.68079
lowerneck -13.8995 -0.762305 -0.222916
upperneck 10.1332 -0.722749 -1.97958
head 5.31805 -0.506229 -0.646882
rclavicle -2.71341e-014 0
rhumerus 48.4599 -6.01306 -72.0141
rradius 16.4762
rwrist 27.7974
rhand -22.6926 -26.3692
rfingers 7.12502
rthumb 3.73993 -56.3162
lclavicle -2.71341e-014 0
lhumerus 41.2295 -8.57284 43.0747
lradius 29.2224
lwrist 9.57756
lhand -29.3252 1.57147
lfingers 7.12502
lthumb -2.66578 31.5346
rfemur -18.8489 1.06316 18.0812
rtibia 51.0088
rfoot -18.5628 -17.376
rtoes -15.5704
lfemur -18.6363 5.60662 -18.9547
ltibia 52.4981
lfoot -25.572 11.8761
ltoes -11.5053
